<svg xmlns="http://www.w3.org/2000/svg" xmlns:xlink="http://www.w3.org/1999/xlink" version="1.1" id="Layer_1" x="0px" y="0px" width="100px" height="100px" viewBox="0 0 100 100" enable-background="new 0 0 100 100" xml:space="preserve">
<path style="fill:#fff" d="M88.901,23.24l-31.208-6.58c-2.47-0.518-4.892,0.777-5.964,2.954H32.05c-2.995,0-5.423,2.468-5.423,5.467v0.185  l-15.829,3.319C7.861,29.2,5.984,32.073,6.6,35.008l10.114,48.255c0.615,2.934,3.492,4.81,6.421,4.198l34.253-7.179  c0.496-0.105,0.946-0.294,1.374-0.513h6.775l11.027,2.349c2.929,0.614,5.806-1.262,6.421-4.199l10.114-48.253  C93.715,26.729,91.837,23.856,88.901,23.24z M23.002,80.711c-0.301,0.065-0.609-0.173-0.669-0.471l-9.383-44.762  c-0.063-0.298,0.133-0.597,0.436-0.662l13.241-2.775v42.3c0,2.204,1.317,4.089,3.203,4.94L23.002,80.711z M33.307,73.135  c-0.312,0-0.561-0.254-0.561-0.56V30.758v-3.914c0-0.303,0.25-0.6,0.558-0.6h16.841l-2.396,11.423l-6.592,31.445  c-0.303,1.443,0.002,2.871,0.735,4.023H33.307z M77.366,74.896c-0.061,0.301-0.369,0.537-0.669,0.474l-4.23-0.926l-6.538-1.369  l-4.713-0.989l-6.541-1.372l-6.733-1.411c-0.306-0.065-0.497-0.364-0.434-0.663l3.366-16.06L54,37.667l2.394-11.423l0.496-2.363  c0.061-0.298,0.369-0.537,0.669-0.473l14.917,3.127l13.837,2.939c0.304,0.062,0.499,0.364,0.437,0.662L77.366,74.896z"/>
<g>
	<path style="fill:#fff" fill-rule="evenodd" clip-rule="evenodd" d="M71.322,36.008c0.868,0.247,1.739,0.485,2.602,0.751   c0.809,0.247,0.958,0.709,0.465,1.378c-1.553,2.123-3.113,4.238-4.659,6.363c-0.102,0.138-0.331,0.271-0.22,0.469   c0.086,0.152,0.307,0.087,0.473,0.091c2.027,0.072,4.057,0.147,6.081,0.219c0.151,0.01,0.301,0.014,0.451,0.024   c0.345,0.025,0.612,0.182,0.752,0.503c0.14,0.317,0.008,0.576-0.206,0.818c-1.311,1.498-2.617,3-3.923,4.504   c-3.474,3.996-6.95,7.994-10.423,11.991c-0.075,0.084-0.147,0.173-0.224,0.252c-0.375,0.413-0.82,0.497-1.194,0.229   c-0.449-0.332-0.378-0.723-0.136-1.141c1.297-2.267,2.589-4.537,3.885-6.804c1.014-1.782,2.02-3.566,3.045-5.337   c0.202-0.348,0.169-0.424-0.24-0.434c-2.14-0.061-4.279-0.147-6.419-0.224c-0.149-0.006-0.301-0.006-0.451-0.023   c-0.745-0.086-1.013-0.614-0.64-1.274c1.634-2.874,3.271-5.751,4.909-8.623c0.75-1.323,1.52-2.636,2.253-3.965   c0.285-0.522,0.666-0.674,1.213-0.515C69.583,35.516,70.451,35.758,71.322,36.008z"/>
</g>
</svg>
