<svg xmlns="http://www.w3.org/2000/svg" xmlns:xlink="http://www.w3.org/1999/xlink" version="1.1" id="Layer_1" x="0px" y="0px" width="98.005px" height="100px" viewBox="0 0 98.005 100" enable-background="new 0 0 98.005 100" xml:space="preserve">
	<path style="fill:#ffd700;" class="grain" d="M15.248 97.137l-1.357-13.664c0-1.257 1.602-0.144 3.623-0.144l0 0c2.005 0 3.626-1.113 3.6 0.144l0 0l-1.136 13.3 C20.004 99.7 15.2 98.5 15.2 97.137z"/>
	<path style="fill:#ffd700"  class="grain" d="M9.431 52.654c-9.954-4.499-9.144-11.582-9.144-11.582c-1.256 2.5 1.4 24.3 11.8 24.3 C16.719 65.4 20.6 57.7 9.4 52.654z"/>
	<path style="fill:#ffd700"  class="grain"  d="M9.431 37.244c-9.954-4.485-9.144-11.568-9.144-11.568c-1.256 2.5 1.4 24.3 11.8 24.3 C16.719 50 20.6 42.3 9.4 37.244z"/>
	<path style="fill:#ffd700"  class="grain"  d="M9.431 22.297c-9.954-4.466-9.144-11.562-9.144-11.562c-1.256 2.5 1.4 24.3 11.8 24.3 C16.719 35 20.6 27.3 9.4 22.297z"/>
	<path style="fill:#ffd700"  class="grain"  d="M23.233 65.381c10.374 0 13.033-21.809 11.79-24.309c0 0 0.8 7.083-9.156 11.6 C14.691 57.7 18.6 65.4 23.2 65.381z"/>
	<path style="fill:#ffd700"  class="grain"  d="M9.431 68.434c-9.954-4.498-9.144-11.581-9.144-11.581c-1.256 2.5 1.4 24.3 11.8 24.3 C16.719 81.2 20.6 73.5 9.4 68.434z"/>
	<path style="fill:#ffd700"  class="grain"  d="M23.233 81.162c10.374 0 13.033-21.809 11.79-24.309c0 0 0.8 7.083-9.156 11.6 C14.691 73.5 18.6 81.2 23.2 81.162z"/>
	<path style="fill:#ffd700"  class="grain"  d="M23.233 49.985c10.374 0 13.033-21.815 11.79-24.309c0 0 0.8 7.083-9.156 11.6 C14.691 42.3 18.6 50 23.2 49.985z"/>
	<path style="fill:#ffd700"  d="M23.233 35.031c10.374 0 13.033-21.796 11.79-24.296c0 0 0.8 7.096-9.156 11.6 C14.691 27.3 18.6 35 23.2 35.031z"/>
	<path style="fill:#ffd700"  class="grain"  d="M18.376 23.462C29.381 23.5 17.8 0 17.8 0C16.371 2.2 7.4 23.5 18.4 23.462z"/>
	<path style="fill:#ffd700"  class="grain"  d="M48.131 98.967l6.641-11.621l0 0c0.527-1.119-1.406-0.813-3.22-1.646l0 0c-1.842-0.854-2.825-2.539-3.35-1.4l-4.527 13 C43.092 98.5 46.9 101.6 48.1 98.967z"/>
	<path style="fill:#ffd700"  class="grain"  d="M57.134 54.47c-7.118-8.274-3.411-14.355-3.411-14.355c-2.19 1.738-8.948 22.6 0.4 27 C58.384 69.1 65.2 63.8 57.1 54.47z"/>
	<path style="fill:#ffd700"  class="grain"  d="M63.632 40.486c-7.122-8.255-3.418-14.335-3.418-14.335c-2.194 1.732-8.962 22.6 0.4 27 C64.882 55.1 71.7 49.8 63.6 40.486z"/>
	<path style="fill:#ffd700"  class="grain"  d="M69.927 26.945c-7.142-8.242-3.418-14.348-3.418-14.348c-2.188 1.738-8.951 22.6 0.5 27 C71.177 41.6 78 36.2 69.9 26.945z"/>
	<path style="fill:#ffd700"  class="grain"  d="M64.296 71.845c9.406 4.4 21.015-14.283 20.923-17.089c0 0-2.246 6.765-13.177 6.6 C59.79 61.3 60.1 69.9 64.3 71.845z"/>
	<path style="fill:#ffd700"  class="grain"  d="M50.494 68.78c-7.132-8.269-3.424-14.342-3.424-14.342c-2.188 1.731-8.948 22.6 0.5 27 C51.75 83.4 58.5 78.1 50.5 68.78z"/>
	<path style="fill:#ffd700"  class="grain"  d="M57.648 86.142c9.4 4.4 21.009-14.283 20.931-17.076c0 0-2.253 6.764-13.177 6.6 C53.144 75.6 53.4 84.2 57.6 86.142z"/>
	<path style="fill:#ffd700"  class="grain"  d="M70.793 57.869c9.4 4.4 21.001-14.296 20.923-17.083c0 0-2.252 6.758-13.176 6.6 C66.274 47.3 66.6 55.9 70.8 57.869z"/>
	<path style="fill:#ffd700"  class="grain"  d="M77.088 44.301c9.407 4.4 20.995-14.27 20.917-17.069c0 0-2.259 6.783-13.17 6.6 C72.576 33.7 72.9 42.4 77.1 44.301z"/>
	<path style="fill:#ffd700"  class="grain"  d="M77.55 31.763c9.974 4.6 9.336-21.536 9.336-21.536C84.686 11.7 67.6 27.1 77.5 31.763z"/>
</svg>