<svg xmlns="http://www.w3.org/2000/svg" xmlns:xlink="http://www.w3.org/1999/xlink" version="1.1" id="Layer_1" x="0px" y="0px" viewBox="0 0 90 90" enable-background="new 0 0 90 90" xml:space="preserve" height="100px" width="100px">
	<path style="fill:#bb5d00" d="M75.723 21.843c-0.774 0-1.534 0.077-2.284 0.196c0.382-1.301 0.584-2.663 0.584-4.057c0-7.911-6.436-14.347-14.346-14.347 c-3.836 0-7.427 1.495-10.135 4.202L33 21.233l-11.069 9.383c-3.431 3.027-5.611 7.443-5.611 12.4 c0 1.2 0.1 2.4 0.4 3.515L5.779 57.425c-0.047 0.046-0.093 0.092-0.138 0.138L5.484 57.72l0.007 0 c-2.858 2.969-4.626 6.994-4.626 11.431c0 9.1 7.4 16.5 16.5 16.508c6.142 0 11.5-3.378 14.343-8.367 c2.843 5 8.2 8.4 14.3 8.367c5.954 0 11.166-3.179 14.07-7.919l27.562-34.042l0.668-0.723 c1.437-2.282 1.709-4.085 1.709-6.794C90.069 28.3 83.6 21.8 75.7 21.843z M53.294 10.2 c1.797-1.475 4.024-2.28 6.384-2.28c2.943 0 5.6 1.3 7.4 3.29L52.128 27.288l3.113 2.896L69.33 15 c0.285 0.9 0.4 1.9 0.4 2.947c0 1.775-0.463 3.476-1.318 4.978l-1.096 1.269c-0.335 0.28-1.466 1.502-1.779 1.8 L49.153 45.304c0.108-0.76 0.183-1.531 0.183-2.321c0-8.958-7.176-16.256-16.08-16.486L53.294 10.167z M18.336 50.9 c0.372 0.7 0.8 1.3 1.3 1.939c-0.73-0.099-1.47-0.168-2.227-0.168c-0.287 0-0.568 0.029-0.852 0.043L18.336 50.88z M29.591 69.919c-0.396 6.403-5.716 11.495-12.217 11.495c-6.758 0-12.256-5.498-12.256-12.256c0-3.337 1.344-6.364 3.516-8.576 l0.164-0.164c2.212-2.171 5.239-3.516 8.576-3.516c6.501 0 11.8 5.1 12.2 11.495c-0.012 0.254-0.039 0.504-0.039 0.8 S29.58 69.7 29.6 69.919z M31.717 61.018c-0.336-0.59-0.712-1.153-1.116-1.695c0.693 0.1 1.4 0.2 2.1 0.2 C32.354 60 32 60.5 31.7 61.018z M20.572 42.983c0-6.758 5.498-12.256 12.256-12.256s12.256 5.5 12.3 12.3 s-5.498 12.256-12.256 12.256S20.572 49.7 20.6 42.983z M56.675 75.258L55.54 76.66l0.119 0.1 c-2.247 2.832-5.711 4.658-9.598 4.658c-6.501 0-11.821-5.092-12.217-11.495c0.012-0.254 0.039-0.504 0.039-0.761 s-0.027-0.507-0.039-0.761c0.396-6.403 5.716-11.495 12.217-11.495c6.758 0 12.3 5.5 12.3 12.3 C58.316 71.4 57.7 73.5 56.7 75.258z M84.882 40.42l-22.37 27.629c-0.107-1.596-0.441-3.128-0.971-4.569L76.132 46.7 l-3.209-2.789L59.395 59.467c-2.59-3.554-6.556-6.032-11.114-6.649l21.228-24.575c0.08-0.063 0.164-0.122 0.246-0.182 c0 0 0.278-0.169 0.386-0.284c1.641-1.093 3.566-1.681 5.582-1.681c5.566 0 10.1 4.5 10.1 10.1 C85.817 37.7 85.5 39.1 84.9 40.42z"/>
	<path style="fill:#bb5d00" d="M17 73.821c-2 0-4.29-1.821-4.29-4.821H8.458c0 5 3.5 9.1 8.5 9.073v-2.145c0.124 0 0.2 0 0.4 0 L17 75.574V73.821z"/>
	<path style="fill:#bb5d00" d="M46 73.821c-1.22 0-2.196-0.315-2.94-0.874l-0.699-0.699c-0.625-0.813-0.964-1.904-0.964-3.249h-4.252 c0 5 3.9 9.1 8.9 9.073v-2.129c0.02 0 0 0 0.1 0.003L46 75.887V73.821z"/>
	<path style="fill:#bb5d00" d="M29.214 46.158c-0.667-0.773-1.048-1.823-1.048-3.158h-2.109L26 42.983c0 0 0 0 0 0.017h-2.087 c0 5 4.1 8.9 9.1 8.898v-4.252c-1.4 0-2.533-0.372-3.357-1.06L29.214 46.158z"/>
</svg>