<svg xmlns="http://www.w3.org/2000/svg" xmlns:xlink="http://www.w3.org/1999/xlink" version="1.1" id="Your_Icon" x="0px" y="0px" width="100px" height="100px" viewBox="0 0 100 100" enable-background="new 0 0 100 100" xml:space="preserve">
	<style>.style0{fill:	#000000;}</style>
	<path style="fill:#d1d1d1" d="M85.141 16.424H14.858L1.46 29.821v3.686L50 83.576l2.43-2.429l0.07 0.041l0.149-0.262L97.774 34.3 l0.765-0.771v-3.698L85.141 16.424z M87.568 26.224l3.598 3.598h-7.195L87.568 26.224z M82.981 21.637l0.899 0.9l-6.412 6.4 l-7.313-7.313H82.981z M70.968 29.821H56.375l7.296-7.296L70.968 29.821z M57.187 21.637l-7.201 7.202l-7.201-7.202H57.187z M43.596 29.821H28.969l7.314-7.313L43.596 29.821z M17.018 21.637h12.763l-7.01 7.01l-6.381-6.382L17.018 21.637z M12.703 25.9 l3.87 3.871h-7.74L12.703 25.95z M8.832 35.035h12.397l16.732 29.129L8.832 35.035z M47.392 70.116l-20.15-35.082h20.15V70.116z M52.606 70.536V35.035h20.392L52.606 70.536z M62.594 63.615l16.415-28.581h12.174L62.594 63.615z" class="style0"/>
</svg>
