
<svg xmlns="http://www.w3.org/2000/svg" xmlns:xlink="http://www.w3.org/1999/xlink" version="1.1" x="0px" y="0px" width="100px" height="100px" viewBox="0 0 100 100" enable-background="new 0 0 100 100" xml:space="preserve">
<g id="Captions">
	<rect x="-192" width="185" height="99"/>
	<rect y="-36" width="100" height="30"/>
	<line fill="#000000" stroke="#FFFFFF" stroke-miterlimit="10" x1="8" y1="-14.5" x2="18" y2="-14.5"/>
	<line fill="#000000" stroke="#FFFFFF" stroke-miterlimit="10" x1="-179" y1="16.5" x2="-162" y2="16.5"/>
	<g>
		<g>
			<g>
				<rect x="-170.802" y="31.318" fill="#d1d1d1" width="8.721" height="8.642"/>
				<path style="fill:#d1d1d1" fill="#d1d1d1" d="M-164.455,42.312h4.747v-4.703h-4.747V42.312z M-159.266,42.749h-5.63V37.17h5.63V42.749      L-159.266,42.749z M-166.221,44.062h8.279v-8.203h-8.279V44.062L-166.221,44.062z M-157.5,44.5h-9.163v-9.079h9.163V44.5      L-157.5,44.5z"/>
				<polygon fill="#d1d1d1" points="-166.149,44.133 -166.292,43.991 -158.013,35.787 -157.871,35.929     "/>
			</g>
		</g>
	</g>
	<rect  style="fill:#d1d1d1" x="-179" y="58" fill="none" width="35" height="32.5"/>
	<rect  style="fill:#d1d1d1" x="-136.5" y="58" fill="none" width="35" height="32.5"/>
	<rect  style="fill:#d1d1d1" x="-94" y="58" fill="none" width="35" height="32.5"/>
	<rect  style="fill:#d1d1d1" x="-50" y="58" fill="none" width="35" height="32.5"/>
	<rect x="-126.514" y="34.815" fill="#d1d1d1" width="10.261" height="10.185"/>
	<rect x="-126.477" y="31.766" fill="#d1d1d1" width="0.522" height="2.337"/>
	<rect x="-116.813" y="31.766" fill="#d1d1d1" width="0.523" height="2.337"/>
	<rect x="-127" y="32.337" fill="#d1d1d1" width="11.233" height="0.572"/>
	<g>
		<rect x="-83.805" y="33.844" fill="#d1d1d1" width="10.305" height="10.156"/>
		<rect x="-76.809" y="28.707" fill="#d1d1d1" width="3.308" height="3.261"/>
	</g>
	<rect x="-178.5" y="22.5" fill="#d1d1d1" stroke="#FFFFFF" stroke-miterlimit="10" width="30" height="30"/>
	<rect x="-136.5" y="22.5" fill="#d1d1d1" stroke="#FFFFFF" stroke-miterlimit="10" width="30" height="30"/>
	<rect x="-93.5" y="22.5" fill="#d1d1d1" stroke="#FFFFFF" stroke-miterlimit="10" width="30" height="30"/>
	<rect x="-49.5" y="22.5" fill="#d1d1d1" stroke="#FFFFFF" stroke-miterlimit="10" width="30" height="30"/>
</g>
<g id="Your_Icon">
	<path style="fill:#d1d1d1" stroke="#000000" stroke-miterlimit="10" d="M85.194,68.583c-1.399,0.597-2.861,1.011-4.397,1.26   c-0.222,0.698-0.621,1.388-1.262,2.026c-1.874,1.869-4.31,3.06-6.895,3.704c-0.519,0.428-1.126,0.752-1.812,0.915   c-1.686,0.401-3.681,0.621-5.484,0.246C67.433,92.79,86.866,89.558,85.194,68.583z"/>
	<path style="fill:#d1d1d1" fill="none" stroke="#000000" stroke-width="2" stroke-miterlimit="10" d="M17.169,63.595"/>
	<path style="fill:#d1d1d1" fill="none" stroke="#000000" stroke-width="2" stroke-miterlimit="10" d="M9.679,33.633"/>
	<path style="fill:#d1d1d1" stroke="#000000" stroke-miterlimit="10" d="M42.498,76.838c-1.21-0.812-2.221-1.716-3.15-2.715l-3.239-0.688   c-2.617,0.857-5.316,0.826-8.15,0.87c-0.383,13.351,13.655,18.104,18.213,4.11C44.879,78.083,43.632,77.599,42.498,76.838z"/>
	<path style="fill:#d1d1d1" d="M9.679,31.252C-9.667,52.5,8.056,67.334,19.042,63.595c9.363-4.213,10.363-8.491,14.108-13.875   c-1.873-2.107-7.49-5.852-1.873-9.012c-5.617,1.286-9.363-0.584-9.363-7.14C14.667,34.5,16,35,9.679,31.252z"/>
	<path style="fill:#d1d1d1" fill="none" stroke="#000000" stroke-width="2" stroke-miterlimit="10" d="M23.724,18.652   c6.554-11.235,15.917-5.618,17.999-1.872c9.154-13.108,22.261-3.746,23.996,0c11.373-9.363,26.354,3.745,21.999,13.108   c13.717,1.872,11.845,18.725,4,20.597c7.845,9.364-4,20.599-11.998,18.727c-6,11.235-18.001,7.489-19.999,5.618   c-13.999,7.489-20,0-21.999-1.874c-15.998,5.617-18.68-3.744-18.68-9.361c9.363-3.746,9.363-7.491,12.682-13.11   c-1.23-1.784-4-5.617-2.001-9.361c-5.999,0-7.998-3.746-7.998-7.491C-3.429,37.377,11.551,7.417,23.724,18.652z"/>
</g>
</svg>
